P3
63 63
255
252 252 252  252 252 252  252 252 252  252 252 252  251 251 251  251 251 251
251 251 251  251 251 251  251 251 251  251 251 251  251 251 251  251 251 251
251 251 251  251 251 251  251 251 251  251 251 251  252 252 252  252 252 252
252 252 252  252 252 252  252 252 252  252 252 252  252 252 252  252 252 252
252 252 252  252 252 252  252 252 252  252 252 252  252 252 252  252 252 252
252 252 252  252 252 252  252 252 252  252 252 252  252 252 252  252 252 252
252 252 252  252 252 252  252 252 252  252 252 252  252 252 252  252 252 252
252 252 252  252 252 252  252 252 252  252 252 252  252 252 252  252 252 252
252 252 252  252 252 252  252 252 252  252 252 252  252 252 252  252 252 252
252 252 252  252 252 252  252 252 252  252 252 252  252 252 252  252 252 252
252 252 252  252 252 252  252 252 252
252 252 252  82 56 254  74 167 254  65 168 255  75 156 254  60 141 255
58 141 255  58 141 254  58 141 255  58 141 255  58 141 254  58 141 255
58 141 255  58 141 255  58 141 255  58 141 255  58 141 254  57 140 255
57 141 254  58 141 255  58 141 255  58 141 255  58 141 255  58 141 255
58 141 255  58 141 254  58 141 254  58 141 255  58 141 254  58 141 255
58 141 255  58 141 254  58 141 255  58 141 255  58 141 255  58 141 255
58 141 255  58 141 255  58 141 255  58 141 255  58 141 255  58 141 255
58 141 255  58 141 254  58 141 255  58 141 255  58 141 255  58 141 255
58 141 255  58 141 254  58 141 255  58 141 255  58 141 255  58 141 255
57 141 254  58 141 254  59 142 255  67 149 255  63 169 255  78 152 254
111 173 255  77 68 242  252 252 252
252 252 252  200 95 73  217 172 186  212 6 97  226 142 186  235 101 251
207 89 254  197 85 255  198 86 254  198 86 255  198 86 255  198 85 255
197 85 255  197 85 255  197 85 255  200 85 255  203 87 255  203 90 254
196 84 255  196 84 255  199 86 254  198 85 255  198 85 254  198 86 255
198 86 255  198 86 255  198 86 255  198 86 255  198 86 255  198 86 255
198 86 254  198 86 254  198 86 254  198 86 254  198 86 255  198 86 255
198 86 255  198 86 255  198 86 255  198 86 255  198 86 255  198 86 255
198 86 255  198 86 255  198 86 255  198 86 255  198 86 255  198 86 255
198 86 255  198 85 255  198 85 254  198 85 255  198 85 255  198 85 255
196 85 255  196 85 255  198 85 255  204 88 255  222 104 211  156 47 213
144 4 255  105 156 206  252 252 252
252 252 252  168 36 135  254 203 210  194 229 163  230 137 209  246 171 144
254 127 229  249 123 244  247 123 243  248 123 243  248 123 243  248 123 243
249 123 243  227 120 243  242 124 238  254 126 240  254 129 237  244 123 243
252 124 243  249 124 241  242 122 244  247 123 243  246 123 243  246 123 243
245 123 243  246 123 243  246 123 243  245 123 243  245 123 243  245 123 243
245 123 243  245 123 243  245 123 243  245 123 243  245 123 243  245 123 243
245 123 243  245 123 243  245 123 243  245 123 243  245 123 243  245 123 243
245 123 243  245 123 243  245 123 243  245 123 243  245 123 243  245 123 243
245 123 243  246 123 243  247 123 243  246 123 243  247 123 243  246 123 244
227 119 244  241 123 238  255 125 241  224 118 245  204 81 242  140 36 171
145 5 255  124 155 229  252 252 252
251 251 251  244 65 132  242 207 186  158 223 130  255 113 255  254 148 191
230 162 157  249 126 238  249 123 249  250 123 248  250 123 248  252 124 248
230 121 249  183 87 255  223 117 238  229 150 191  229 148 177  255 113 240
254 135 221  241 124 254  243 114 255  252 121 252  248 119 255  248 119 254
249 119 254  249 119 255  248 118 255  249 118 255  249 118 255  249 118 255
249 118 254  249 118 255  249 118 255  249 118 255  249 118 255  249 118 255
249 118 254  249 118 255  249 118 255  249 118 255  249 118 255  249 118 255
249 118 255  249 118 254  249 118 255  249 118 255  249 118 255  249 118 255
250 118 255  252 119 255  250 120 255  250 120 255  249 120 255  230 117 255
176 84 255  221 119 231  248 157 177  210 150 177  201 85 224  167 44 176
142 5 255  125 152 247  252 252 252
251 251 251  203 45 139  255 203 164  215 16 104  249 160 165  249 128 236
254 120 249  253 124 250  250 121 252  251 122 252  252 122 252  254 123 251
255 124 251  244 125 246  231 120 254  237 111 255  254 117 240  255 125 235
243 124 252  241 117 254  250 117 254  252 121 253  251 118 254  254 121 252
249 121 253  248 119 254  250 118 255  251 120 253  251 119 254  251 119 254
251 119 254  251 119 254  251 119 254  251 119 254  251 119 254  251 119 254
251 119 254  251 119 254  251 119 254  251 119 254  251 119 254  251 119 254
251 119 254  251 119 254  251 119 254  251 119 254  252 119 254  253 120 254
252 121 253  247 120 253  251 118 254  250 119 254  232 115 251  224 117 251
168 86 255  239 132 211  242 171 153  214 115 245  192 72 243  163 42 178
144 6 254  125 152 249  252 252 252
251 251 251  205 44 143  255 197 171  238 22 103  247 166 150  247 130 234
250 120 253  254 125 248  251 123 250  251 124 250  251 124 250  252 124 250
252 124 251  246 122 253  243 117 255  247 122 242  249 124 246  237 122 252
237 112 255  249 113 255  253 121 247  253 121 252  249 121 253  244 119 254
248 116 254  252 118 254  250 119 253  250 117 255  253 118 254  253 118 254
252 118 254  253 118 254  253 118 254  253 118 254  253 118 254  253 118 254
253 118 254  253 118 254  253 118 254  253 118 254  253 118 254  253 118 254
253 118 254  253 118 254  253 118 254  253 118 254  252 119 254  244 117 254
246 116 255  253 116 253  254 125 235  208 113 253  182 85 255  218 119 233
246 140 209  248 168 158  255 135 219  236 121 252  191 81 239  151 37 179
145 4 255  125 152 247  252 252 252
251 251 251  204 43 143  255 196 173  242 22 104  248 166 150  247 130 234
249 120 254  253 125 249  250 123 251  251 123 251  251 123 251  251 123 251
253 124 250  255 126 248  249 127 245  238 119 255  233 111 255  238 108 255
243 111 254  254 114 252  255 118 250  250 117 254  239 114 255  247 110 254
252 117 252  251 116 254  250 116 254  254 116 253  255 123 238  255 123 237
255 123 237  255 123 237  255 123 237  255 123 237  255 123 237  255 123 237
255 123 237  254 123 237  254 123 237  255 123 237  255 123 237  255 123 237
255 123 237  255 123 237  255 123 237  252 122 239  238 115 249  228 104 255
254 121 234  255 132 220  233 126 244  182 81 255  209 120 227  247 139 225
255 129 249  254 143 215  253 149 193  212 155 170  197 91 222  157 37 177
146 5 255  125 152 247  252 252 252
251 251 251  204 43 143  255 196 173  242 22 104  248 166 150  247 130 234
249 119 254  253 125 249  250 123 251  251 123 250  251 123 251  251 123 250
253 124 250  254 125 249  247 125 249  234 117 254  231 111 255  233 110 255
243 107 255  255 113 253  251 118 251  244 113 255  248 110 255  240 113 249
239 111 248  247 114 240  252 117 240  254 122 223  255 137 209  251 137 210
254 136 213  254 136 213  254 136 213  254 136 213  254 136 213  254 136 213
254 136 213  254 136 213  254 136 213  254 136 213  254 136 213  254 136 213
254 136 213  254 136 213  253 136 213  253 134 219  228 118 244  187 94 254
218 133 217  227 153 198  228 140 214  234 151 208  235 152 211  255 134 245
253 146 221  238 153 191  244 171 145  206 114 243  190 76 239  148 35 177
146 5 255  125 152 247  252 252 252
251 251 251  204 43 143  255 196 173  242 22 104  248 166 150  247 130 234
249 119 254  253 125 249  250 123 251  251 123 250  251 123 250  251 123 250
253 124 250  255 125 249  247 125 249  234 118 255  231 111 254  237 110 254
242 111 253  249 112 253  246 112 253  239 108 252  226 105 247  207 85 255
255 83 244  156 44 254  223 136 191  231 178 158  188 147 186  191 136 189
186 145 177  187 145 178  187 145 179  187 145 179  187 145 179  187 145 179
187 145 179  187 145 179  187 145 179  187 145 179  187 145 179  187 145 179
187 145 179  187 145 179  190 146 178  186 151 170  238 182 156  234 182 164
213 169 186  255 197 164  232 204 156  209 178 184  216 152 214  221 155 200
202 154 198  218 147 190  248 176 140  194 108 252  181 75 234  148 35 177
147 5 255  125 152 247  252 252 252
251 251 251  204 43 143  255 196 173  242 22 104  248 166 150  247 130 234
249 119 254  253 125 249  250 123 251  251 123 250  251 123 251  251 123 250
253 124 250  255 125 249  247 125 249  233 117 255  229 110 255  231 108 255
229 103 255  231 98 255  223 96 254  246 92 221  255 66 227  186 46 255
177 69 246  198 163 134  237 136 193  255 211 151  253 231 132  236 233 129
234 229 134  236 229 134  236 229 134  236 229 134  236 229 134  235 229 134
235 229 134  236 229 134  236 229 134  236 229 134  236 229 134  236 229 134
236 229 134  235 229 134  232 228 134  234 230 134  213 217 145  179 160 183
255 94 222  252 182 167  255 243 146  240 216 180  220 183 196  213 179 184
209 253 124  229 201 137  229 169 147  209 115 245  181 73 245  147 34 178
147 5 255  125 152 247  252 252 252
251 251 251  204 43 143  255 196 173  240 22 104  248 166 150  247 130 234
249 119 254  253 125 249  250 123 251  251 123 250  251 123 250  251 123 250
253 124 250  255 125 249  247 125 249  234 118 254  231 111 254  234 111 254
223 105 254  208 93 255  236 87 218  211 59 176  164 21 217  169 34 255
183 145 179  252 199 150  229 176 158  255 238 128  254 0 119  255 10 118
254 13 116  255 13 116  255 13 116  255 13 116  255 13 116  255 13 116
255 13 116  255 13 116  255 13 116  254 13 116  255 13 116  255 13 116
255 13 116  255 13 116  254 14 116  223 4 121  155 214 123  150 70 134
104 32 125  154 139 139  254 205 182  255 240 154  212 239 152  213 135 252
211 142 228  229 1 118  217 199 129  233 160 171  214 96 230  158 38 175
147 5 255  125 152 247  252 252 252
251 251 251  203 43 143  254 196 173  250 23 104  249 166 150  247 130 234
251 120 254  253 125 248  250 123 250  251 123 250  251 123 250  252 123 250
254 124 249  254 126 249  247 125 249  231 117 254  223 108 255  218 102 254
204 90 255  225 84 220  218 70 155  189 26 253  214 42 255  199 91 248
240 104 245  224 150 184  255 237 114  209 213 131  150 167 134  171 199 122
161 192 125  158 189 125  159 190 125  158 190 125  158 190 125  158 190 125
157 190 125  157 190 125  158 190 125  158 189 125  158 190 125  158 190 125
159 190 125  161 192 123  244 221 119  254 251 105  249 27 86  151 13 79
201 7 118  238 42 90  219 216 133  241 180 154  255 246 139  183 169 196
238 134 254  206 156 202  254 7 125  232 158 182  235 139 171  190 46 178
143 4 254  125 152 248  252 252 252
251 251 251  208 44 143  255 195 173  255 22 104  231 159 163  252 131 232
255 122 248  254 126 248  250 124 249  251 124 249  252 124 250  252 124 250
253 125 249  254 126 249  246 125 248  231 117 254  223 108 255  211 101 254
187 82 254  213 71 220  214 64 151  193 28 254  137 254 255  238 73 244
188 133 185  242 147 147  254 217 138  255 21 84  255 32 80  233 36 75
220 36 75  216 35 75  219 36 75  222 36 75  223 36 75  225 36 75
225 36 75  223 36 75  222 36 75  219 36 75  219 36 75  220 36 75
218 36 75  208 34 75  152 13 79  154 239 83  129 162 91  134 174 118
253 21 102  203 6 100  168 100 158  233 182 148  254 245 134  202 202 187
230 141 245  203 152 205  204 234 151  238 156 190  240 142 169  188 46 177
144 4 255  125 152 247  252 252 252
251 251 251  181 38 139  253 197 171  207 3 116  255 118 255  249 145 198
249 169 147  249 127 238  248 124 248  249 124 246  248 123 250  249 123 251
253 124 250  254 127 247  249 127 248  233 119 255  218 106 254  211 98 255
188 84 255  209 70 222  204 63 144  169 15 252  163 21 254  221 75 235
247 22 254  235 178 145  254 18 79  250 52 70  216 42 78  255 86 60
255 86 60  255 87 60  255 86 60  254 84 60  254 84 60  255 82 61
255 81 61  255 82 60  255 82 60  255 84 60  254 86 60  254 85 60
255 86 60  255 87 60  233 81 60  224 73 58  255 78 55  230 58 67
199 251 91  243 245 104  160 239 92  199 119 156  214 171 195  237 233 170
224 167 202  216 164 200  202 233 150  237 156 189  240 142 169  189 46 177
144 4 255  125 152 247  252 252 252
251 251 251  250 66 135  252 208 193  177 239 131  247 124 255  254 144 199
240 169 146  251 127 238  253 126 249  250 124 254  247 119 255  251 121 253
255 124 251  253 125 252  241 123 254  228 117 255  222 105 255  211 100 255
189 85 254  211 75 215  219 56 186  159 21 255  231 93 221  185 49 197
173 221 255  255 201 140  255 43 62  232 41 78  255 102 52  255 110 48
255 108 48  255 107 48  255 110 47  254 111 47  254 109 48  255 107 48
255 106 48  254 107 48  255 108 48  255 109 48  255 110 48  254 110 48
255 109 48  255 107 48  248 107 48  215 99 48  225 95 47  163 44 67
207 214 92  254 14 87  170 227 112  176 64 176  251 193 171  207 234 167
227 167 203  226 168 202  200 233 150  238 156 189  240 142 169  188 46 177
144 4 255  125 152 247  252 252 252
251 251 251  204 46 142  241 186 178  200 243 146  203 142 193  249 173 144
254 128 232  254 125 254  246 124 253  243 122 253  255 124 253  254 124 252
245 123 253  239 120 255  229 109 255  240 108 255  237 114 254  208 100 255
176 71 254  210 70 213  213 51 185  164 21 255  200 87 241  222 82 186
167 199 225  253 195 141  255 49 58  238 56 75  223 108 46  194 106 61
245 115 44  251 116 44  250 117 43  244 115 44  244 112 45  250 113 45
254 113 45  249 113 45  250 114 44  250 116 44  249 117 44  245 115 44
244 114 44  247 116 44  242 116 44  248 116 34  255 113 40  158 52 61
158 206 85  251 17 86  164 226 111  145 66 166  236 178 181  232 245 164
226 170 201  228 169 203  200 232 150  238 156 189  240 142 169  188 46 177
144 4 254  125 152 247  252 252 252
251 251 251  211 54 129  254 202 211  193 231 155  202 146 180  252 176 138
244 126 242  233 120 254  229 112 254  249 108 255  253 131 226  239 122 254
240 113 254  245 119 251  243 117 252  238 115 253  240 111 254  229 111 254
182 91 255  200 60 227  193 45 176  167 20 255  199 86 241  219 75 199
163 195 240  254 198 139  253 53 56  251 61 74  178 105 46  193 109 58
247 119 42  246 120 41  248 120 41  242 119 42  237 117 43  240 114 43
246 114 43  248 115 43  252 118 42  249 120 41  247 119 42  245 119 42
243 119 41  247 119 41  246 120 42  255 121 33  255 102 46  176 69 55
171 229 77  241 17 86  161 225 111  152 64 176  232 179 177  233 245 165
227 170 202  226 167 205  200 233 150  238 156 189  240 142 169  188 46 177
144 4 255  125 152 247  252 252 252
251 251 251  199 50 128  255 203 208  191 230 153  204 146 180  247 171 144
221 114 253  230 105 255  255 115 248  251 131 224  244 124 252  246 115 254
252 121 252  250 121 253  233 117 253  220 107 254  219 94 255  225 95 255
196 87 255  206 67 221  208 52 177  167 22 255  198 84 246  215 71 205
162 195 243  255 198 138  243 52 56  250 61 73  176 104 46  194 108 58
246 117 42  246 117 42  245 118 42  241 117 42  241 118 32  255 114 39
250 112 44  126 100 42  190 104 59  247 117 42  243 117 42  243 117 42
245 117 42  247 118 42  250 119 42  254 120 33  255 102 46  178 72 54
181 235 76  240 17 86  160 226 110  152 69 172  229 176 179  234 245 164
227 170 201  226 168 204  200 233 150  238 156 189  240 142 169  188 46 177
144 4 254  125 152 247  252 252 252
251 251 251  200 51 128  255 204 205  190 229 153  208 147 181  241 168 146
222 107 254  248 111 254  255 121 242  245 124 250  242 119 255  251 120 254
246 120 254  228 114 254  226 101 255  237 105 253  237 111 250  209 98 254
189 74 255  212 75 211  220 55 185  162 21 255  202 83 249  233 79 214
164 195 242  251 196 139  242 49 56  246 60 73  179 104 46  191 107 58
244 117 42  246 118 41  244 118 41  238 117 42  242 117 32  255 112 38
246 110 43  128 100 42  191 105 58  247 118 41  241 117 42  241 117 42
244 117 41  243 118 41  243 117 42  255 118 33  255 103 46  179 73 54
183 236 77  239 17 86  160 226 110  154 70 172  228 176 178  232 244 164
227 170 201  226 168 205  200 233 150  238 156 189  240 142 169  188 46 177
144 4 255  125 152 247  252 252 252
251 251 251  199 51 128  255 204 205  190 229 153  209 147 181  243 168 145
228 111 248  254 116 251  249 120 251  231 111 254  240 104 255  250 117 252
237 111 255  239 107 254  247 116 246  239 112 254  231 107 255  221 96 254
187 84 254  207 65 227  204 52 175  161 19 255  239 102 196  150 30 207
171 207 255  255 205 140  238 49 56  245 60 73  179 104 45  189 107 58
238 115 42  240 115 42  240 117 42  236 115 42  238 117 32  255 115 38
254 113 43  124 100 42  185 103 59  244 116 42  238 116 42  238 115 42
243 116 42  242 117 42  237 116 43  255 118 33  255 103 46  181 74 54
184 236 77  239 17 86  160 226 110  155 71 172  226 176 178  240 246 165
227 170 202  226 168 204  200 233 150  238 156 189  240 142 169  188 46 177
144 4 255  125 152 247  252 252 252
251 251 251  199 51 128  255 204 205  190 229 153  209 147 181  243 168 145
230 111 249  255 116 252  253 122 246  234 116 254  236 108 254  249 114 252
250 111 255  252 116 247  240 114 254  230 102 255  240 102 255  244 109 251
206 98 255  205 77 216  221 52 201  168 23 255  198 80 252  230 74 197
146 190 237  253 192 144  254 52 56  246 60 73  179 105 45  191 108 58
242 117 42  240 118 41  241 119 41  235 117 42  233 115 43  249 117 32
255 115 37  193 103 60  245 115 42  244 118 41  238 118 42  237 117 42
242 118 41  243 119 41  238 118 42  253 119 33  255 103 46  180 73 54
184 236 77  238 17 86  160 226 110  155 71 172  230 177 178  225 241 165
229 168 201  228 169 203  200 233 150  238 156 189  240 142 169  188 46 177
144 4 255  125 152 247  252 252 252
251 251 251  199 51 128  254 204 205  190 229 153  209 147 181  243 168 145
231 112 248  255 116 252  249 120 253  223 111 255  227 98 254  254 109 254
251 113 250  248 114 253  250 111 255  247 113 252  247 112 250  236 109 253
199 92 255  219 66 225  175 38 173  135 4 254  189 79 244  241 74 217
125 168 199  255 195 146  239 48 56  247 62 72  179 105 45  190 107 58
244 117 42  243 119 41  242 119 42  236 117 42  233 114 43  250 117 32
255 115 37  195 103 60  247 116 42  245 118 42  240 118 42  238 117 42
242 117 41  244 119 41  242 118 42  255 120 33  255 103 46  179 72 54
184 236 77  239 17 86  160 226 110  155 72 171  230 177 178  228 245 164
225 167 203  226 165 208  202 234 149  237 156 189  240 142 169  188 46 177
144 4 255  125 152 247  252 252 252
251 251 251  199 51 128  255 204 205  190 229 153  209 147 181  243 168 145
230 111 249  255 115 253  247 119 254  221 107 255  226 99 255  244 106 254
246 103 255  249 107 252  242 107 248  247 106 245  206 98 247  222 90 254
238 80 226  178 55 176  171 23 226  226 52 255  186 115 208  255 49 224
136 29 255  247 173 157  255 44 55  254 64 70  178 107 45  189 107 58
245 117 41  244 119 41  242 119 41  236 117 42  233 114 43  249 117 32
255 115 37  196 104 60  248 116 42  244 118 42  239 118 42  238 117 42
242 117 41  243 118 42  243 118 42  254 121 33  255 103 46  179 72 54
184 236 77  239 17 86  160 226 110  155 72 171  228 177 178  236 247 164
225 168 203  227 166 205  201 233 150  238 156 189  240 142 169  188 46 177
144 4 255  125 152 247  252 252 252
251 251 251  199 51 128  254 204 205  190 229 153  209 147 181  243 168 145
230 111 249  254 115 253  247 119 253  222 108 255  231 102 254  237 107 250
226 97 255  223 88 254  240 87 211  255 61 251  234 55 255  208 71 253
231 86 231  229 109 172  243 103 196  231 104 222  255 29 233  255 23 228
157 39 255  209 159 155  254 47 56  249 65 69  174 106 45  189 107 58
243 117 42  242 118 41  241 118 42  235 117 42  237 118 32  254 115 38
173 107 42  184 102 60  248 116 42  246 118 41  239 118 42  236 116 42
242 117 42  246 119 41  244 119 42  255 120 33  255 103 46  179 72 54
184 236 77  239 17 86  160 226 110  155 72 171  229 177 178  231 245 164
226 168 202  227 167 204  201 233 150  238 156 189  240 142 169  188 46 177
144 4 255  125 152 247  252 252 252
251 251 251  199 51 128  255 204 205  190 229 153  209 147 181  243 168 145
229 111 249  252 115 253  241 116 254  207 99 255  209 85 255  224 88 255
208 81 254  243 70 224  255 66 216  124 248 255  110 236 228  185 94 196
255 61 255  208 70 234  241 71 203  238 27 201  242 11 212  244 9 204
146 42 245  183 133 133  255 33 78  180 59 64  194 100 67  250 118 42
246 118 41  244 120 41  241 119 41  235 118 42  232 115 43  235 113 43
241 113 43  244 114 43  247 116 42  244 118 42  240 117 42  238 117 42
238 117 41  242 117 42  244 118 42  255 120 33  255 104 46  178 72 54
184 236 77  239 17 86  160 226 110  156 71 172  227 176 179  236 245 164
227 170 201  228 169 203  200 232 150  238 156 189  240 142 169  188 46 177
144 4 255  125 152 247  252 252 252
251 251 251  199 51 128  255 204 205  190 229 153  209 147 181  243 168 145
229 111 249  252 115 253  242 117 253  206 100 254  201 85 255  199 81 255
236 74 211  186 48 167  134 4 233  181 28 255  216 145 193  237 80 231
254 51 212  232 33 254  179 31 243  196 228 255  245 242 201  255 63 217
148 254 255  157 61 145  255 4 99  255 62 72  174 106 45  190 107 58
248 117 42  250 119 41  247 119 41  241 117 42  238 118 32  255 115 39
165 106 43  189 103 60  251 116 42  249 118 41  244 118 41  244 117 41
245 118 41  246 118 41  249 119 42  255 121 32  255 103 46  177 72 54
184 235 77  239 17 86  160 226 110  155 71 172  227 176 178  234 245 164
227 170 202  226 167 205  200 233 150  238 156 189  240 142 169  188 46 177
144 4 254  125 152 247  252 252 252
251 251 251  199 51 128  255 204 205  190 229 153  209 147 181  243 168 145
229 111 249  252 115 253  241 116 254  203 99 255  192 81 255  219 82 220
244 81 142  233 42 255  203 50 255  225 105 226  170 142 176  255 65 116
250 21 193  244 17 242  173 240 255  154 200 194  255 26 211  249 25 255
213 235 255  143 77 133  255 2 95  255 62 72  175 106 45  189 106 58
240 115 42  243 115 42  241 116 42  242 118 32  254 114 38  234 110 44
240 110 44  244 111 43  128 101 42  184 104 59  238 115 42  239 114 42
243 115 42  242 116 42  243 115 43  255 117 33  255 102 46  179 73 54
183 236 77  239 17 86  160 226 110  155 71 172  228 176 178  233 244 164
227 170 201  226 168 204  200 233 150  238 156 189  240 142 169  188 46 177
144 4 254  125 152 247  252 252 252
251 251 251  199 51 128  255 204 205  190 229 153  209 147 181  243 168 145
229 111 249  252 115 253  242 117 254  203 99 255  191 80 255  217 82 217
218 73 145  204 27 255  182 41 254  199 89 218  247 72 207  255 54 169
226 40 175  196 219 255  100 192 173  233 51 171  222 14 254  188 210 230
204 203 191  235 168 96  255 251 99  254 62 72  189 107 46  188 105 59
245 115 43  242 116 42  242 117 42  235 115 43  239 116 33  255 113 39
249 111 44  128 100 43  188 103 60  245 117 42  239 116 43  239 115 43
244 116 43  243 117 42  238 115 43  255 117 34  255 102 47  181 73 55
187 237 77  239 17 86  160 226 110  155 70 172  228 176 178  232 244 164
227 170 201  225 168 205  200 233 150  238 156 189  240 142 169  188 46 177
144 4 255  125 152 247  252 252 252
251 251 251  199 51 128  255 204 205  190 229 153  209 147 181  243 168 145
229 111 249  252 115 253  241 117 254  203 98 255  189 80 254  218 80 218
205 68 145  193 19 254  195 42 255  240 104 202  160 54 180  247 23 224
189 16 199  228 228 215  254 66 237  201 154 116  200 216 170  233 185 255
179 195 196  234 168 106  255 251 99  255 58 74  255 107 49  250 110 46
251 110 45  127 99 44  192 102 63  251 116 35  255 112 41  255 110 46
252 109 47  253 110 46  254 110 46  255 111 46  255 112 46  252 110 46
254 110 46  255 111 46  254 112 46  217 108 47  191 92 51  169 66 58
191 236 78  240 15 87  161 227 110  155 71 175  223 174 179  239 246 164
228 169 202  226 168 204  200 233 150  238 156 189  240 142 169  188 46 177
144 4 254  125 152 247  252 252 252
251 251 251  199 51 128  255 204 205  190 229 153  209 147 181  243 168 145
229 111 249  252 115 253  241 117 254  203 98 255  188 80 255  217 80 217
206 68 145  194 20 251  198 42 255  242 103 205  157 51 177  251 21 225
192 14 205  204 214 231  232 60 232  176 104 148  182 220 192  237 184 254
176 192 190  227 155 113  254 241 103  255 48 76  255 93 55  252 94 58
245 97 53  242 98 53  243 99 52  240 99 52  231 98 50  210 92 52
242 94 52  236 94 52  237 95 52  233 95 52  224 94 53  227 92 53
241 94 53  253 96 53  247 94 58  251 97 54  243 102 50  150 48 67
170 209 89  255 11 87  159 226 111  170 79 175  224 176 179  229 243 165
229 167 203  228 169 203  200 233 150  238 156 189  240 142 169  188 46 177
144 4 255  125 152 247  252 252 252
251 251 251  199 51 128  255 204 205  190 229 153  209 147 181  243 168 145
229 111 249  252 115 253  241 117 254  203 98 255  189 80 255  217 80 217
207 68 144  196 20 252  199 43 255  241 102 205  161 54 177  251 22 226
193 14 205  198 212 236  224 59 224  162 107 141  147 198 210  213 173 249
166 172 229  226 125 130  254 199 120  255 49 67  190 48 65  210 30 79
254 64 67  250 65 67  248 65 67  253 65 65  255 74 60  247 69 62
248 66 64  252 67 64  252 66 64  243 65 65  241 63 66  245 62 66
212 60 65  122 30 66  230 39 78  255 66 67  225 74 63  162 26 76
152 203 87  255 1 93  199 235 106  133 30 232  241 189 176  230 239 170
228 166 205  227 166 206  201 233 150  237 156 189  240 142 169  188 46 177
144 4 254  125 152 247  252 252 252
251 251 251  199 51 128  255 204 205  190 229 153  209 147 181  243 168 145
229 111 249  252 115 253  241 117 254  203 98 255  189 80 255  217 80 217
207 68 144  196 20 252  198 43 255  241 103 204  161 54 177  251 23 226
196 15 205  206 215 235  225 60 233  153 110 137  230 8 167  218 193 245
183 144 227  254 64 214  235 174 125  237 181 129  254 17 73  215 11 76
223 12 74  214 11 74  214 11 74  211 10 74  206 9 74  210 4 78
211 5 76  218 6 74  240 12 82  230 11 81  213 13 83  197 4 85
210 12 79  209 14 76  238 40 74  208 27 76  178 18 85  159 225 95
117 122 98  223 193 137  226 242 123  107 231 187  239 190 174  228 221 184
225 162 210  229 168 202  202 233 150  236 156 189  238 142 169  188 46 177
144 4 255  125 152 247  252 252 252
251 251 251  199 51 128  255 204 205  190 229 153  209 147 181  243 168 145
229 111 249  252 115 253  241 117 254  203 98 255  189 80 255  217 80 217
207 68 144  196 20 252  197 43 254  241 103 205  161 54 177  252 23 227
196 13 207  221 217 245  215 49 255  174 132 134  208 4 158  236 181 255
163 159 249  252 32 196  192 137 145  168 127 160  229 166 143  254 195 111
245 196 109  245 195 110  245 194 110  245 195 110  248 196 108  231 201 101
254 220 92  238 189 104  195 143 187  255 253 88  255 244 111  232 244 106
223 18 82  195 16 90  234 197 116  208 178 109  248 206 147  236 252 100
234 226 105  193 250 111  215 142 214  240 117 187  255 246 153  224 170 227
253 137 254  202 159 201  210 237 150  249 160 187  222 134 180  191 46 180
143 4 255  125 152 248  252 252 252
251 251 251  199 51 128  255 204 205  190 229 153  209 147 181  243 168 145
229 111 249  252 115 253  241 117 254  203 98 255  189 80 255  217 80 217
207 68 144  196 20 252  197 43 255  241 103 205  160 53 177  244 21 224
167 8 186  170 199 255  208 2 252  164 126 145  153 15 156  143 159 254
234 191 254  240 228 183  254 40 231  202 42 255  215 133 203  215 145 172
215 144 174  216 145 172  217 145 172  218 146 172  199 143 174  180 117 186
206 144 166  192 157 158  203 51 255  246 79 226  120 207 135  253 53 189
222 112 171  172 45 153  133 43 138  166 30 191  229 101 180  200 187 196
238 138 238  231 198 164  160 4 161  143 31 245  228 200 182  227 153 218
238 155 218  254 216 162  199 228 135  230 156 174  229 99 231  159 37 177
147 5 255  125 152 247  252 252 252
251 251 251  199 51 128  255 204 205  190 229 153  209 147 181  243 168 145
229 111 249  252 115 253  241 117 254  203 98 254  189 80 255  217 80 217
207 68 144  196 20 252  197 43 255  241 103 205  169 55 178  255 25 233
247 66 145  187 224 255  201 208 223  255 58 255  252 197 128  252 20 159
255 209 254  255 239 236  246 244 236  193 229 228  255 245 255  222 240 254
223 238 255  226 239 255  226 239 255  226 239 255  226 239 254  218 241 255
235 11 247  214 227 254  206 202 162  135 214 187  205 82 253  255 93 229
185 174 142  222 136 169  203 80 233  200 68 239  215 96 201  192 18 255
142 208 211  255 79 255  161 156 208  221 175 155  254 176 217  227 152 227
251 189 183  206 208 183  254 143 215  215 158 165  202 91 227  156 37 177
147 5 255  125 152 247  252 252 252
251 251 251  199 51 128  255 204 205  190 229 153  209 147 181  243 168 145
229 111 249  252 115 253  241 117 254  203 98 255  189 80 255  217 80 217
207 68 144  196 20 252  197 43 255  241 103 205  169 56 178  255 25 233
209 59 147  168 217 255  158 184 253  214 4 223  166 122 178  225 36 142
143 177 227  201 180 222  179 201 190  153 167 226  167 175 208  179 181 209
177 177 211  177 179 209  176 178 209  171 176 209  172 176 210  243 198 219
208 216 197  255 205 251  196 68 222  255 54 154  215 32 255  112 213 241
229 67 235  225 177 144  245 149 147  221 121 210  203 97 243  217 172 133
220 168 149  244 108 236  254 99 255  218 142 214  254 164 211  244 182 189
182 203 177  239 154 194  236 166 156  205 114 245  188 76 239  147 34 177
147 5 255  125 152 247  252 252 252
251 251 251  199 51 128  255 204 205  190 229 153  209 147 181  243 168 145
229 111 249  252 115 253  241 117 254  203 98 255  189 80 254  217 80 217
207 68 144  196 20 252  197 43 255  241 103 205  168 55 178  255 25 232
212 59 142  218 231 254  186 225 255  179 200 241  255 33 255  179 88 197
255 43 169  211 232 255  221 228 255  232 239 255  217 233 255  212 228 254
217 230 255  217 230 255  220 231 255  227 235 255  210 233 255  164 204 255
209 167 249  81 20 242  196 79 75  250 29 248  188 3 255  218 153 158
247 3 117  241 179 173  234 156 160  254 117 234  246 117 233  252 113 255
254 112 240  93 24 255  80 223 255  249 124 248  189 156 209  141 182 187
234 149 200  243 169 157  238 127 235  200 108 255  181 74 238  149 35 177
146 5 255  125 152 247  252 252 252
251 251 251  199 51 128  255 204 205  190 229 153  209 147 181  243 168 145
229 111 249  252 115 253  241 117 254  203 98 255  189 80 255  217 80 217
207 68 144  196 20 252  197 43 254  241 103 205  168 55 178  255 25 232
218 62 140  226 234 254  234 235 255  193 218 254  221 234 228  222 228 254
253 244 255  255 246 255  255 247 254  255 248 255  255 248 255  255 248 255
255 248 255  255 248 254  255 248 255  254 248 255  255 248 254  216 231 255
136 189 250  195 79 101  221 65 221  252 35 211  169 199 255  238 164 166
255 233 145  206 150 215  240 139 223  247 149 190  252 175 143  234 124 237
244 125 244  237 140 172  231 111 228  250 120 254  241 115 254  255 113 255
255 128 246  238 125 246  223 115 255  208 111 255  191 78 246  152 36 179
146 5 254  125 152 248  252 252 252
251 251 251  199 51 128  255 204 205  190 229 153  209 147 181  243 168 145
229 111 249  252 115 253  241 117 254  203 98 255  189 80 254  217 80 217
207 68 144  196 20 252  197 43 255  241 103 205  168 55 178  255 25 232
220 63 140  227 235 254  226 236 241  223 235 251  222 229 254  224 228 253
244 238 243  236 237 244  230 235 242  230 234 241  228 233 239  228 233 239
228 234 239  228 234 239  230 234 238  233 236 239  208 228 255  198 203 219
255 18 185  182 39 255  212 80 182  255 34 244  152 189 255  207 160 178
254 218 155  194 172 185  164 139 207  228 145 197  227 146 193  199 103 254
224 117 238  253 148 190  237 169 149  246 123 243  250 120 252  252 123 247
233 123 251  203 100 255  189 89 255  232 133 217  234 134 178  178 42 176
144 3 255  125 152 246  252 252 252
251 251 251  199 51 128  255 204 205  190 229 153  209 147 181  243 168 145
229 111 249  252 115 253  241 117 254  203 98 255  189 80 255  217 80 217
207 68 144  196 20 252  197 43 255  241 103 205  169 56 179  255 25 232
211 60 142  223 234 243  255 249 246  231 241 255  230 235 254  238 238 254
244 241 255  241 240 255  241 240 255  241 240 254  240 240 255  240 240 255
240 240 255  240 240 255  241 240 255  241 241 255  199 231 254  182 184 254
255 30 162  192 46 254  220 82 184  204 7 252  141 157 222  246 127 196
229 148 213  255 220 148  242 17 129  198 150 192  244 125 250  229 119 242
248 151 183  231 163 158  255 128 230  248 125 249  246 122 251  246 119 254
208 111 254  177 91 255  214 125 217  243 146 200  231 128 173  179 44 169
147 7 255  125 152 248  252 252 252
251 251 251  199 51 128  255 204 205  190 229 153  209 147 181  243 168 145
229 111 249  252 115 253  241 117 254  203 98 255  189 80 255  217 80 217
207 69 144  198 21 253  197 43 255  242 103 205  166 55 175  255 25 232
221 63 141  245 240 248  255 250 249  239 242 255  230 234 254  249 241 255
242 239 255  243 239 255  242 239 255  242 239 254  242 239 255  242 239 254
242 239 254  243 239 255  244 239 254  243 240 255  193 228 255  177 180 255
255 36 155  179 42 249  214 78 192  234 18 254  130 146 223  235 93 225
220 142 195  245 207 159  187 237 150  215 148 198  254 128 249  235 130 236
227 160 160  253 127 217  247 129 240  247 122 251  254 127 245  229 123 251
177 89 255  204 112 236  232 146 195  209 144 182  225 82 234  173 46 180
141 4 255  125 152 248  252 252 252
251 251 251  199 51 128  255 204 205  190 229 153  209 147 181  243 168 145
229 111 249  252 115 253  241 117 254  203 98 255  188 80 255  217 80 217
207 69 145  198 20 254  197 43 255  239 101 205  171 59 170  254 25 232
202 58 142  214 229 248  251 245 241  220 233 245  226 235 247  230 234 246
232 236 245  231 235 246  231 235 246  231 235 246  231 235 246  231 235 246
231 235 246  231 235 246  233 236 244  235 237 250  195 227 254  178 180 255
255 36 157  189 49 246  213 77 192  231 10 255  138 145 228  229 112 204
227 135 204  253 214 153  188 243 145  235 165 180  227 133 219  207 101 255
242 133 209  252 174 145  250 125 246  254 125 251  253 125 253  253 125 254
239 122 250  231 117 254  236 110 255  223 109 254  201 85 228  155 40 175
145 5 255  125 152 247  252 252 252
251 251 251  199 51 128  255 204 205  190 229 153  209 147 181  243 168 145
229 111 249  252 115 253  241 117 254  203 98 255  189 80 255  217 80 218
206 68 147  183 16 250  199 43 255  195 89 240  204 62 222  255 37 166
224 66 135  208 233 245  250 244 244  248 245 246  235 240 247  217 234 244
225 237 242  223 236 243  223 237 243  223 237 243  223 237 243  223 237 243
223 237 243  223 237 243  225 237 242  226 238 247  193 228 255  183 181 255
254 38 154  193 50 255  232 75 208  123 235 207  115 159 242  248 93 244
224 140 195  255 212 156  199 240 152  210 146 199  251 123 249  218 118 237
240 151 184  249 171 143  252 125 241  252 127 248  249 123 253  252 125 251
250 124 251  248 124 250  238 120 253  202 105 254  194 78 236  155 40 176
144 5 255  125 152 248  252 252 252
251 251 251  199 51 128  255 204 205  190 229 153  209 147 181  243 168 145
229 111 249  252 115 253  242 117 254  203 99 254  189 80 255  218 81 216
205 69 137  208 27 246  200 49 255  250 101 212  110 14 196  255 34 214
239 71 150  246 249 242  255 252 255  253 245 254  255 247 245  253 252 237
247 250 241  247 250 241  247 250 241  247 250 241  247 250 241  247 250 241
247 250 241  248 250 241  250 251 240  248 251 243  170 226 255  113 166 252
254 42 141  255 76 161  248 53 255  148 21 254  147 96 232  150 40 249
204 133 195  248 194 173  178 211 166  206 145 192  225 140 200  190 100 254
242 134 216  249 171 142  252 125 241  252 126 250  248 122 253  252 124 252
251 124 252  249 123 252  236 119 255  198 103 254  191 78 233  155 40 176
144 5 255  125 152 248  252 252 252
251 251 251  199 51 128  255 204 205  190 229 153  209 147 181  243 168 145
229 111 249  252 115 253  241 116 254  202 98 255  186 78 254  214 77 220
231 74 148  247 38 255  173 42 255  202 87 252  210 99 190  164 18 109
255 26 214  255 246 254  179 214 248  177 201 196  215 223 204  254 3 219
255 252 245  255 252 245  255 252 245  255 252 245  255 252 245  254 252 245
255 252 245  255 252 245  255 252 245  255 254 241  255 6 233  255 20 231
255 46 203  249 55 244  140 249 255  155 235 236  255 221 113  191 6 88
206 188 171  231 157 204  248 164 164  254 124 241  234 119 253  164 83 254
238 133 214  249 171 142  252 125 241  252 126 250  249 122 253  252 124 251
251 124 252  249 123 252  236 119 255  197 103 255  191 78 233  155 40 176
144 5 254  125 152 248  252 252 252
251 251 251  199 51 128  255 204 205  190 229 153  209 147 181  243 168 145
229 111 249  252 115 253  242 117 253  204 99 254  191 82 255  220 83 218
177 63 137  135 254 236  210 32 255  224 67 255  228 79 245  150 168 174
179 213 164  140 212 164  231 19 184  138 223 251  162 220 244  184 235 211
174 233 210  174 233 210  174 233 210  174 233 210  174 233 210  174 233 210
174 233 210  174 233 210  175 233 209  197 240 207  255 8 215  254 36 244
255 43 255  228 36 255  144 0 254  145 122 187  239 147 196  255 217 159
230 166 209  220 143 229  242 156 181  249 168 151  227 118 249  156 81 255
238 134 213  249 171 142  252 125 241  253 126 250  249 123 252  252 124 251
251 124 252  249 124 252  236 119 255  197 103 254  191 78 233  155 40 176
144 5 254  125 152 248  252 252 252
251 251 251  199 51 128  255 204 205  190 229 153  209 147 181  243 168 145
229 111 249  251 115 253  241 116 254  203 98 255  192 81 255  216 83 221
232 80 149  200 40 255  237 35 255  255 36 241  177 47 255  243 93 225
167 205 134  225 96 173  207 29 187  188 18 254  166 7 255  182 13 255
178 12 254  179 12 255  179 12 255  179 12 255  179 12 255  179 12 254
179 12 255  179 12 255  178 12 255  171 10 255  140 246 255  117 212 240
114 200 219  139 183 121  255 95 221  140 178 158  220 170 181  255 170 205
234 147 233  243 135 247  248 149 192  235 165 151  228 120 243  156 82 255
238 134 213  249 171 142  252 125 241  253 126 250  249 123 253  252 124 251
251 124 252  249 124 252  236 119 255  197 103 255  191 78 233  155 40 176
144 5 255  125 152 248  252 252 252
251 251 251  199 51 128  255 204 205  190 229 153  209 147 181  243 168 145
229 111 249  252 115 253  241 117 253  201 98 255  190 78 255  187 72 254
214 73 217  157 48 161  102 247 249  111 229 223  233 41 254  236 69 249
255 99 239  249 127 202  229 124 197  234 118 209  235 119 209  235 119 209
235 119 209  235 119 209  235 119 209  235 119 209  235 119 209  235 119 209
235 119 209  235 119 209  235 119 209  235 119 209  228 118 213  222 103 237
235 87 250  234 107 202  243 123 205  227 111 255  234 127 231  248 150 222
247 140 240  241 152 193  248 169 151  254 127 230  228 122 250  153 80 255
238 133 213  249 171 142  252 125 241  253 126 250  249 123 253  252 124 251
251 124 252  249 124 252  236 119 255  197 103 255  191 78 233  155 40 176
144 5 255  125 152 248  252 252 252
251 251 251  199 51 128  255 204 205  190 229 153  209 147 181  243 168 145
230 111 249  254 115 253  244 118 252  216 103 255  226 98 254  233 107 244
195 87 255  181 67 254  192 77 242  229 68 252  143 29 255  181 67 245
252 102 212  248 107 238  231 87 255  229 87 249  232 90 244  233 90 245
233 90 245  233 90 245  233 90 245  233 90 245  233 90 245  233 90 245
233 90 245  233 90 245  233 90 245  232 90 245  229 88 246  226 87 245
240 97 239  254 111 232  240 113 249  188 84 255  215 113 241  250 133 241
254 130 251  237 145 197  235 166 152  251 127 239  228 120 254  151 79 255
238 133 213  249 172 141  251 125 242  253 126 250  249 123 253  252 124 251
251 124 252  249 124 252  236 119 255  197 103 255  191 78 233  155 40 176
144 5 255  125 152 248  252 252 252
251 251 251  199 51 128  255 204 205  190 229 153  209 147 181  243 168 146
230 113 247  255 116 252  248 122 246  224 109 255  241 104 254  255 119 236
231 121 237  237 123 226  253 124 230  246 121 227  246 124 207  255 125 219
252 123 233  253 123 241  249 122 237  249 122 235  250 122 235  250 122 235
250 122 235  250 122 235  250 122 235  250 122 235  250 122 235  250 122 235
250 122 235  250 122 235  250 122 235  250 122 235  250 122 235  250 123 234
252 123 236  254 124 241  254 123 246  249 124 243  251 126 248  254 125 255
241 125 255  223 113 254  254 124 235  254 127 247  211 115 255  157 80 255
242 137 211  250 170 145  253 124 243  252 126 250  249 123 252  252 124 251
251 124 252  249 124 252  236 119 255  197 103 254  191 78 233  155 40 176
144 5 255  125 152 248  252 252 252
251 251 251  199 51 128  255 204 205  189 229 153  211 148 181  239 167 146
229 108 251  254 117 246  249 123 248  224 112 254  238 101 255  238 121 236
195 90 255  224 116 241  240 143 205  248 128 243  229 136 199  242 171 150
250 125 241  255 125 251  255 125 250  255 125 250  254 125 250  255 125 250
255 125 250  254 125 250  255 125 250  254 125 250  255 125 250  255 125 250
254 125 250  255 125 250  254 125 250  255 125 250  255 125 250  255 125 250
254 125 250  255 125 251  255 125 251  255 124 252  247 124 254  242 120 255
225 114 255  183 83 254  239 133 217  219 142 197  188 89 255  203 118 221
254 152 188  229 162 151  253 127 237  251 125 251  250 123 253  252 124 251
251 124 252  249 124 252  236 119 255  197 103 255  191 78 233  155 40 176
144 5 254  125 152 248  252 252 252
251 251 251  199 51 128  255 204 205  190 229 153  208 147 180  242 171 141
234 115 241  254 119 248  246 119 253  235 114 254  255 127 230  255 131 233
246 127 244  249 125 251  254 124 254  254 126 253  252 126 250  254 126 245
255 125 252  255 126 252  255 126 252  255 126 252  255 126 252  254 126 252
255 126 252  255 126 252  254 126 252  255 126 252  255 126 252  255 126 252
255 126 252  254 126 252  255 126 252  255 126 252  254 126 252  255 126 252
255 126 252  255 126 252  254 126 252  248 124 254  241 117 255  248 116 254
255 124 244  242 125 241  241 124 251  212 113 254  172 88 255  239 139 206
245 165 157  255 121 233  252 128 243  251 123 254  252 124 251  251 124 252
251 124 251  249 124 252  236 119 255  197 103 254  191 78 233  155 40 176
144 5 255  125 152 248  252 252 252
251 251 251  200 51 128  255 204 205  190 229 153  203 145 180  250 175 138
238 124 238  233 116 254  228 108 255  201 90 254  244 137 210  237 169 154
247 123 246  254 125 253  252 125 251  252 125 252  252 125 252  253 126 251
252 126 250  252 126 251  252 126 251  252 126 251  252 126 251  252 126 251
252 126 251  252 126 251  252 126 251  252 126 251  252 126 251  252 126 251
252 126 251  252 126 251  252 126 251  252 126 251  252 126 251  252 126 251
252 126 251  252 126 251  251 126 252  252 125 253  251 126 249  250 126 246
248 123 254  243 117 255  207 109 252  181 89 255  209 119 222  255 151 190
234 164 151  252 126 235  252 125 252  250 123 253  252 124 251  251 124 252
251 124 252  249 124 252  236 119 255  197 103 255  191 78 233  155 40 176
144 5 255  125 152 248  252 252 252
251 251 251  199 51 128  255 204 205  190 229 153  204 146 180  245 173 141
227 114 249  237 110 254  255 123 234  248 131 227  246 126 249  247 122 247
249 124 247  250 126 247  248 124 249  247 124 248  247 124 248  247 124 248
248 124 248  247 124 248  247 124 248  247 124 248  247 124 248  247 124 248
247 124 248  247 124 248  247 124 248  247 124 248  247 124 248  247 124 248
247 124 248  247 124 248  247 124 248  247 124 248  247 124 248  247 124 248
247 124 248  247 124 248  246 123 248  247 123 248  249 124 247  251 125 247
253 126 246  229 123 251  177 89 255  204 112 236  237 148 191  232 160 161
255 126 226  253 128 244  252 124 253  251 124 251  251 124 252  252 124 251
251 124 252  249 124 252  236 119 255  197 103 254  191 78 233  155 40 176
144 5 255  125 152 248  252 252 252
251 251 251  200 51 128  255 204 205  189 229 153  203 145 180  251 175 138
248 128 235  251 127 244  252 127 247  252 125 254  252 124 255  253 125 252
253 125 252  254 125 253  254 125 253  254 125 253  253 125 253  253 125 252
254 125 253  253 125 253  253 125 253  253 125 253  253 125 253  253 125 253
253 125 253  253 125 253  253 125 253  253 125 253  253 125 253  253 125 253
253 125 253  253 125 253  253 125 253  253 125 253  253 125 253  253 125 253
253 125 253  253 125 253  253 125 252  253 125 252  254 125 253  254 125 253
254 125 253  253 125 254  243 123 249  237 120 254  246 115 255  255 125 237
254 126 246  253 124 254  251 124 252  251 124 251  252 124 251  252 124 252
251 124 252  249 124 252  236 119 255  197 103 254  191 78 233  155 40 176
144 5 255  125 152 248  252 252 252
251 251 251  199 50 128  255 204 205  189 229 153  203 146 180  250 174 138
249 126 242  253 125 251  252 125 254  251 123 255  251 124 253  252 125 251
251 125 252  252 125 252  252 125 252  252 125 252  252 125 252  252 125 252
252 125 252  252 125 252  252 125 252  252 125 252  252 125 252  252 125 252
252 125 252  252 125 252  252 125 252  252 125 252  252 125 252  252 125 252
252 125 252  252 125 252  252 125 252  252 125 252  252 125 252  252 125 252
252 125 252  252 125 252  252 125 252  252 125 252  252 125 252  252 125 252
251 125 252  251 124 252  250 124 252  251 124 251  251 125 248  254 125 250
252 124 253  251 124 252  251 124 252  251 124 251  251 124 252  251 124 252
251 124 252  249 123 252  236 119 255  197 103 255  191 78 233  155 40 176
145 5 255  125 152 248  252 252 252
251 251 251  201 51 127  255 204 208  193 231 154  204 145 181  249 175 138
246 125 241  252 124 251  252 124 251  251 124 250  251 124 251  252 124 251
251 124 251  251 124 251  251 124 251  251 124 251  251 124 251  251 124 251
251 124 251  251 124 251  251 124 251  251 124 251  251 124 251  251 124 251
251 124 251  251 124 251  251 124 251  251 124 251  251 124 251  251 124 251
251 124 251  251 124 251  251 124 251  251 124 251  251 124 251  251 124 251
251 124 251  251 124 251  251 124 251  252 124 251  252 124 251  251 124 251
251 124 251  251 124 251  251 124 251  252 124 251  252 124 251  253 124 250
252 125 250  252 124 251  252 124 250  252 124 250  252 124 250  252 124 250
252 124 250  250 124 251  237 120 254  197 103 255  191 78 232  156 39 178
143 5 255  125 152 247  252 252 252
251 251 251  207 51 132  255 195 213  202 234 154  209 148 181  244 173 145
249 128 236  254 127 245  254 127 246  254 127 246  254 127 245  254 127 245
254 127 246  254 127 246  254 127 246  254 127 246  254 127 246  254 127 246
254 127 246  254 127 246  254 127 246  254 127 246  254 127 246  254 127 246
254 127 246  254 127 246  254 127 246  254 127 246  254 127 246  254 127 246
254 127 246  254 127 246  254 127 246  254 127 246  254 127 246  254 127 246
254 127 246  254 127 246  254 127 246  254 127 246  254 127 246  254 127 246
254 127 246  254 127 246  254 127 245  254 127 245  255 127 245  255 127 245
255 127 246  254 127 245  255 127 246  255 127 246  254 127 246  255 127 246
254 127 246  254 127 246  245 125 246  209 106 255  192 74 245  141 39 159
149 7 254  126 153 249  252 252 252
251 251 251  203 33 156  252 176 191  205 236 151  192 157 186  251 128 244
252 129 246  255 130 244  253 129 245  251 129 245  251 129 245  251 129 245
251 129 245  251 129 245  251 129 245  251 129 245  251 129 245  251 129 245
251 129 245  251 129 245  251 129 245  251 129 245  251 129 245  251 129 245
251 129 245  251 129 245  251 129 245  251 129 245  251 129 245  251 129 245
251 129 245  251 129 245  251 129 245  251 129 245  251 129 245  251 129 245
251 129 245  251 129 245  251 129 245  251 129 245  251 129 245  251 129 245
251 129 245  251 129 245  251 129 245  251 129 245  251 129 245  251 129 245
251 129 245  251 129 245  251 129 245  251 129 245  251 129 245  251 129 245
252 129 245  255 130 242  241 149 187  233 163 163  196 102 215  223 51 239
152 9 255  120 155 254  252 252 252
251 251 251  106 216 139  189 163 190  213 192 175  146 217 122  188 117 233
186 129 191  170 147 160  181 123 210  182 123 213  182 123 213  182 123 213
182 123 213  182 123 213  182 123 213  182 123 213  182 123 213  182 123 213
182 123 213  182 123 213  182 123 213  182 123 213  182 123 213  182 123 213
182 123 213  182 123 213  182 123 213  182 123 213  182 123 213  182 123 213
182 123 213  182 123 213  182 123 213  182 123 213  182 123 213  182 123 213
182 123 213  182 123 213  182 123 213  182 123 213  182 123 213  182 123 213
182 123 213  182 123 213  182 123 213  182 123 213  182 123 213  182 123 213
182 123 213  182 123 213  182 123 213  182 123 213  182 123 213  182 123 213
182 123 213  182 122 213  189 124 209  160 125 201  183 78 219  58 238 128
96 219 255  113 143 183  252 252 252
251 251 251  243 207 70  255 82 93  255 55 106  254 78 90  255 88 74
255 85 77  255 89 71  255 89 71  255 89 71  255 89 71  255 89 71
254 89 71  255 89 71  255 89 71  255 89 71  255 89 71  255 89 71
254 89 71  255 89 71  255 89 71  255 89 71  255 89 71  255 89 71
255 89 71  255 89 71  255 89 71  255 89 71  255 89 71  255 89 71
255 89 71  255 89 71  255 89 71  255 89 71  255 89 71  255 89 71
255 89 71  254 89 71  255 89 71  255 89 71  255 89 71  254 89 71
255 89 71  255 89 71  255 89 71  255 89 71  255 89 71  255 89 71
255 89 71  255 89 71  255 89 71  255 89 71  255 89 71  255 89 71
255 89 71  255 89 71  255 89 71  255 89 71  255 90 71  254 69 77
242 56 71  244 10 78  252 252 252
251 251 251  252 252 252  252 252 252  252 252 252  252 252 252  252 252 252
252 252 252  252 252 252  252 252 252  252 252 252  252 252 252  252 252 252
252 252 252  252 252 252  252 252 252  252 252 252  252 252 252  252 252 252
252 252 252  252 252 252  252 252 252  252 252 252  252 252 252  252 252 252
252 252 252  252 252 252  252 252 252  252 252 252  252 252 252  252 252 252
252 252 252  252 252 252  252 252 252  252 252 252  252 252 252  252 252 252
252 252 252  252 252 252  252 252 252  252 252 252  252 252 252  252 252 252
252 252 252  252 252 252  252 252 252  252 252 252  252 252 252  252 252 252
252 252 252  252 252 252  252 252 252  252 252 252  252 252 252  252 252 252
252 252 252  252 252 252  252 252 252  252 252 252  252 252 252  252 252 252
252 252 252  252 252 252  252 252 252
